<svg width="286" height="63" viewBox="0 0 286 63" fill="none" xmlns="http://www.w3.org/2000/svg">
<path fill-rule="evenodd" clip-rule="evenodd" d="M15.6927 49.3198C15.6927 48.7513 15.4688 48.2066 15.07 47.8045C14.6716 47.4028 14.131 47.1771 13.5676 47.1771H4.4424C1.98857 47.1771 0 45.1719 0 42.6977V20.302C0 17.8316 1.98857 15.823 4.4424 15.823C4.4424 15.823 11.7468 15.823 14.5842 15.823C15.1962 15.823 15.6927 15.3226 15.6927 14.7054V4.47913C15.6927 2.00509 17.6813 0 20.1346 0H42.3453C44.7956 0 46.7877 2.00509 46.7877 4.47913C46.7877 4.47913 46.7877 11.8443 46.7877 14.7054C46.7877 15.3226 47.2837 15.823 47.8957 15.823C50.7332 15.823 58.0376 15.823 58.0376 15.823C60.4914 15.823 62.48 17.8281 62.48 20.302V42.6977C62.48 45.1719 60.4914 47.1771 58.0376 47.1771H48.9213C47.7427 47.1771 46.7877 48.14 46.7877 49.3284V58.521C46.7877 58.9848 46.7177 59.4323 46.5879 59.8529C46.4581 60.2739 46.2685 60.6679 46.0289 61.0254C45.9656 61.1199 45.8987 61.2121 45.8278 61.3003L45.7733 61.37C45.0199 62.2907 43.9088 62.9024 42.654 62.9879L42.5741 62.9941L42.3453 63H20.1346L19.9063 62.9941L19.6806 62.9771C19.3817 62.9465 19.0922 62.8858 18.8138 62.7985L18.6073 62.7283L18.4052 62.6478C18.3397 62.6181 18.2745 62.5884 18.2085 62.5583L18.0172 62.4594L17.8312 62.3514L17.692 62.2615C17.4997 62.1337 17.3182 61.9916 17.1478 61.8364C16.2539 61.0169 15.6927 59.8349 15.6927 58.521V49.3198ZM43.456 28.0477V58.521C43.456 59.1382 42.9578 59.6406 42.3453 59.6406H20.1346C20.02 59.6406 19.9089 59.623 19.805 59.5902L19.7029 59.5524C19.6703 59.5367 19.6382 59.5209 19.6056 59.5052L19.5142 59.449L19.4803 59.4238C19.2037 59.2209 19.0239 58.8917 19.0239 58.521V28.0477C19.0239 27.4302 19.5222 26.9282 20.1346 26.9282H42.3453C42.9578 26.9282 43.456 27.4302 43.456 28.0477ZM33.461 55.1616H29.019C28.4057 55.1616 27.9083 55.6627 27.9083 56.2811C27.9083 56.8996 28.4057 57.4011 29.019 57.4011H33.461C34.0743 57.4011 34.5717 56.8996 34.5717 56.2811C34.5717 55.6627 34.0721 55.1616 33.461 55.1616ZM48.8789 43.8176C47.7236 43.8176 46.7877 42.8735 46.7877 41.709V28.0477C46.7877 25.5739 44.7956 23.5688 42.3453 23.5688H20.1346C17.6813 23.5688 15.6927 25.5739 15.6927 28.0477V41.7176C15.6927 42.2749 15.4732 42.8088 15.0825 43.2028C14.6922 43.5963 14.1622 43.8176 13.61 43.8176C10.3582 43.8176 4.4424 43.8176 4.4424 43.8176C3.82995 43.8176 3.33169 43.3152 3.33169 42.6977V20.302C3.33169 19.6847 3.82995 19.1824 4.4424 19.1824C4.4424 19.1824 12.7304 19.1741 16.8097 19.17C18.0332 19.1688 19.0239 18.1684 19.0239 16.9348C19.0239 12.825 19.0239 4.47913 19.0239 4.47913C19.0239 3.86171 19.5222 3.35934 20.1346 3.35934H42.3453C42.9578 3.35934 43.456 3.86171 43.456 4.47913C43.456 4.47913 43.456 12.8226 43.456 16.9313C43.456 18.1646 44.4467 19.1649 45.6699 19.1665C49.7487 19.1717 58.0376 19.1824 58.0376 19.1824C58.65 19.1824 59.1483 19.6847 59.1483 20.302V42.6977C59.1483 43.3152 58.65 43.8176 58.0376 43.8176H48.8789Z" fill="#133AD8"/>
<path d="M86.0517 18.2204V28.9914H74.3007V18.2204H69.3774V44.7799H74.3007V33.356H86.0517V44.7799H91.0126V18.2204H86.0517Z" fill="#1D0799"/>
<path d="M108.221 45.0834C115.862 45.0834 121.501 39.3145 121.501 31.4962C121.501 23.6779 115.862 17.9166 108.221 17.9166C100.535 17.9166 94.8969 23.6779 94.8969 31.4962C94.8969 39.3145 100.535 45.0834 108.221 45.0834ZM99.8955 31.4962C99.8955 26.1828 103.396 22.2357 108.176 22.2357C113.002 22.2357 116.502 26.1828 116.502 31.4962C116.502 36.8096 113.002 40.7188 108.176 40.7188C103.396 40.7188 99.8955 36.8096 99.8955 31.4962Z" fill="#1D0799"/>
<path d="M134.042 45.0834C139.839 45.0834 143.859 42.0851 143.859 37.1512C143.859 26.79 129.518 31.1926 129.518 25.3098C129.518 23.4501 131.136 22.2357 133.741 22.2357C136.526 22.2357 138.333 23.7917 138.559 26.1069H143.294C143.068 21.135 139.312 17.9166 133.741 17.9166C128.389 17.9166 124.67 20.9452 124.67 25.3098C124.67 35.4813 138.822 31.5342 138.822 37.2272C138.822 39.5802 136.865 40.7188 134.042 40.7188C130.873 40.7188 128.916 38.8211 128.652 35.8608H123.88C124.143 41.4399 128.05 45.0834 134.042 45.0834Z" fill="#1D0799"/>
<path d="M147.442 44.7799H152.44V34.6843H158.019C163.514 34.6843 166.781 31.2686 166.781 26.4485C166.781 21.6285 163.514 18.2204 158.019 18.2204H147.442V44.7799ZM152.44 30.4716V22.4256H157.793C160.729 22.4256 161.933 24.3232 161.933 26.4485C161.933 28.5739 160.729 30.4716 157.793 30.4716H152.44Z" fill="#1D0799"/>
<path d="M177.365 24.6268L180.896 34.3504H173.827L177.365 24.6268ZM164.869 44.7799H169.988L172.246 38.5935H182.402L184.66 44.7799H189.817L179.661 18.2204H174.994L164.869 44.7799Z" fill="#1D0799"/>
<path d="M192.346 44.7799H197.307V26.069L208.757 44.7799H214.094V18.2204H209.133V36.9615L197.721 18.2204H192.346V44.7799Z" fill="#1D0799"/>
<path d="M219.145 44.7799H237.092V40.4229H224.106V33.3181H234.194V28.9914H224.106V22.5394H236.678V18.2204H219.145V44.7799Z" fill="#1D0799"/>
<path d="M240.976 44.7799H258.283V40.4229H245.975V18.2204H240.976V44.7799Z" fill="#1D0799"/>
<path d="M262.604 32.2996H265.291V20.2555H269.591V17.9166H258.283V20.2555H262.604V32.2996Z" fill="#1D0799"/>
<path d="M271.145 32.2996H273.668V22.763L277.561 32.2996H279.604L283.477 22.763V32.2996H286V17.9166H282.906L278.585 28.5384L274.259 17.9166H271.145V32.2996Z" fill="#1D0799"/>
</svg>
