<svg width="40" height="36" viewBox="0 0 40 36" fill="none" xmlns="http://www.w3.org/2000/svg">
<path d="M19.4399 7.695C18.2249 7.695 17.0774 7.92 15.9974 8.37C15.0524 7.65 14.3774 6.7275 13.9724 5.6025C15.6824 4.8375 17.5274 4.455 19.5074 4.455C21.4874 4.455 23.3099 4.8375 24.9749 5.6025C24.5699 6.7275 23.9174 7.65 23.0174 8.37C21.8924 7.92 20.6999 7.695 19.4399 7.695ZM26.2574 26.865C28.5524 24.975 29.8799 22.5225 30.2399 19.5075C30.7799 19.2825 31.3649 19.17 31.9949 19.17C32.5349 19.17 33.0299 19.2375 33.4799 19.3725C33.3449 21.5325 32.7824 23.49 31.7924 25.245C30.8024 27.045 29.4974 28.5525 27.8774 29.7675C27.0674 28.9125 26.5274 27.945 26.2574 26.865ZM11.1374 29.7675C9.51738 28.5075 8.21238 27 7.22238 25.245C6.23238 23.445 5.64738 21.4875 5.46738 19.3725C5.96238 19.2375 6.47988 19.17 7.01988 19.17C7.64988 19.17 8.23488 19.2825 8.77488 19.5075C9.13488 22.5675 10.4624 25.02 12.7574 26.865C12.4874 27.945 11.9474 28.9125 11.1374 29.7675ZM38.9474 19.305C38.9924 19.575 38.9024 19.7775 38.6774 19.9125C38.4074 20.0475 38.1824 20.025 38.0024 19.845C37.3724 19.125 36.7199 18.5625 36.0449 18.1575C34.0199 17.0325 31.9724 16.74 29.9024 17.28C27.7874 17.865 26.1449 19.17 24.9749 21.195C23.8949 23.22 23.6249 25.3125 24.1649 27.4725C24.7049 29.5875 25.9649 31.2525 27.9449 32.4675C28.6199 32.8725 29.4299 33.1875 30.3749 33.4125C30.6449 33.5025 30.7799 33.6825 30.7799 33.9525C30.7799 34.2225 30.6224 34.4025 30.3074 34.4925C27.5624 34.9875 24.9749 34.5375 22.5449 33.1425C21.3299 32.4225 20.3174 31.5225 19.5074 30.4425C18.6974 31.5225 17.6849 32.4225 16.4699 33.1425C14.0399 34.5375 11.4299 34.9875 8.63988 34.4925C8.36988 34.4025 8.23488 34.2225 8.23488 33.9525C8.23488 33.6825 8.36988 33.5025 8.63988 33.4125C9.58488 33.1875 10.3949 32.8725 11.0699 32.4675C13.0499 31.2525 14.3099 29.565 14.8499 27.405C15.3899 25.29 15.1199 23.22 14.0399 21.195C12.8249 19.17 11.1824 17.865 9.11238 17.28C7.04238 16.74 4.99488 17.0325 2.96988 18.1575C2.29488 18.5175 1.64238 19.08 1.01238 19.845C0.832383 20.025 0.607383 20.0475 0.337383 19.9125C0.112383 19.7775 0.0223828 19.5525 0.0673828 19.2375C1.05738 16.5375 2.74488 14.4675 5.12988 13.0275C6.29988 12.3525 7.53738 11.9025 8.84238 11.6775C8.43738 10.5075 8.21238 9.2475 8.16738 7.8975C8.21238 5.0625 9.13488 2.5425 10.9349 0.337502C11.1149 0.112502 11.3399 0.0675021 11.6099 0.202502C11.8349 0.382502 11.9249 0.607502 11.8799 0.877502C11.5649 1.7775 11.4074 2.6325 11.4074 3.4425C11.4524 5.7825 12.2399 7.74 13.7699 9.315C15.2999 10.89 17.2124 11.7 19.5074 11.745C21.8024 11.7 23.7149 10.89 25.2449 9.315C26.7749 7.74 27.5624 5.7825 27.6074 3.4425C27.6074 2.6325 27.4499 1.7775 27.1349 0.877502C27.0899 0.607502 27.1799 0.382502 27.4049 0.202502C27.6749 0.0675021 27.8999 0.112502 28.0799 0.337502C29.8799 2.5425 30.8024 5.0625 30.8474 7.8975C30.8474 9.2475 30.6224 10.5075 30.1724 11.6775C31.4774 11.9025 32.7149 12.3525 33.8849 13.0275C36.3149 14.4675 38.0024 16.56 38.9474 19.305ZM19.4399 21.735C20.3849 21.735 21.1499 21.42 21.7349 20.79C22.3649 20.16 22.6799 19.395 22.6799 18.495C22.6799 17.595 22.3649 16.83 21.7349 16.2C21.1049 15.615 20.3399 15.3 19.4399 15.255C18.5399 15.3 17.7749 15.615 17.1449 16.2C16.5599 16.83 16.2449 17.595 16.1999 18.495C16.2449 19.44 16.5599 20.205 17.1449 20.79C17.7749 21.42 18.5399 21.735 19.4399 21.735Z" fill="#E02424"/>
</svg>