<svg width="45" height="36" viewBox="0 0 45 36" fill="none" xmlns="http://www.w3.org/2000/svg">
<path d="M28.5525 31.7929V28.9579L31.7925 31.5229V32.8729C31.7925 33.5029 31.59 34.0204 31.185 34.4254C30.78 34.8304 30.2625 35.0329 29.6325 35.0329H25.3125C24.6825 35.0329 24.165 34.8304 23.76 34.4254C23.355 34.0204 23.1525 33.5029 23.1525 32.8729V24.7729L26.3925 27.2704V31.7929H28.5525ZM12.8925 19.9129C12.9825 18.9229 13.4775 18.2254 14.3775 17.8204L21.5325 23.4904V32.8729C21.5325 33.5029 21.33 34.0204 20.925 34.4254C20.52 34.8304 20.0025 35.0329 19.3725 35.0329H15.0525C14.4225 35.0329 13.905 34.8304 13.5 34.4254C13.095 34.0204 12.8925 33.5029 12.8925 32.8729V19.9129ZM16.1325 20.9929V31.7929H18.2925V20.9929H16.1325ZM9.11253 26.3929C9.74253 26.3929 10.26 26.5954 10.665 27.0004C11.07 27.4054 11.2725 27.9229 11.2725 28.5529V32.8729C11.2725 33.5029 11.07 34.0204 10.665 34.4254C10.26 34.8304 9.74253 35.0329 9.11253 35.0329H4.79253C4.16253 35.0329 3.64503 34.8304 3.24003 34.4254C2.83503 34.0204 2.63253 33.5029 2.63253 32.8729V28.5529C2.63253 27.9229 2.83503 27.4054 3.24003 27.0004C3.64503 26.5954 4.16253 26.3929 4.79253 26.3929H9.11253ZM8.03253 31.7929V29.6329H5.87253V31.7929H8.03253ZM43.065 32.1304C43.785 32.8054 43.8525 33.5704 43.2675 34.4254C42.9075 34.8304 42.48 35.0329 41.985 35.0329C41.67 35.0329 41.3325 34.8979 40.9725 34.6279L1.08003 3.37539C0.360034 2.70039 0.270034 1.93539 0.810034 1.08039C1.48503 0.360393 2.25003 0.270393 3.10503 0.810393L23.1525 16.5379V11.2729C23.1525 10.6429 23.355 10.1254 23.76 9.72039C24.165 9.31539 24.6825 9.11289 25.3125 9.11289H29.6325C30.2625 9.11289 30.78 9.31539 31.185 9.72039C31.59 10.1254 31.7925 10.6429 31.7925 11.2729V23.2879L33.4125 24.5704V2.63289C33.4125 2.00289 33.615 1.48539 34.02 1.08039C34.425 0.675393 34.9425 0.472893 35.5725 0.472893H39.8925C40.5225 0.472893 41.04 0.675393 41.445 1.08039C41.85 1.48539 42.0525 2.00289 42.0525 2.63289V31.3879L43.065 32.1304ZM28.5525 20.7904V12.3529H26.3925V19.1029L28.5525 20.7904ZM38.8125 28.8229V3.71289H36.6525V27.1354L38.8125 28.8229Z" fill="#E02424"/>
</svg>
