<svg width="36" height="31" viewBox="0 0 36 31" fill="none" xmlns="http://www.w3.org/2000/svg">
<path d="M34.56 25.9876C35.1 26.9776 35.1 27.9226 34.56 28.8226C34.065 29.7226 33.2325 30.1951 32.0625 30.2401H3.30753C2.13753 30.1951 1.30503 29.7226 0.810029 28.8226C0.270029 27.9226 0.247529 26.9776 0.742529 25.9876L15.12 1.41758C15.795 0.47258 16.65 8.01086e-05 17.685 8.01086e-05C18.72 8.01086e-05 19.5525 0.47258 20.1825 1.41758L34.56 25.9876ZM3.98253 27.0001H31.3875L17.6175 3.57758L3.98253 27.0001ZM17.685 20.5876C18.27 20.5876 18.765 20.7901 19.17 21.1951C19.575 21.6001 19.7775 22.1176 19.7775 22.7476C19.7775 23.3326 19.575 23.8276 19.17 24.2326C18.765 24.6376 18.27 24.8401 17.685 24.8401C17.1 24.8401 16.605 24.6376 16.2 24.2326C15.795 23.8276 15.5925 23.3326 15.5925 22.7476C15.5925 22.1176 15.795 21.6001 16.2 21.1951C16.605 20.7901 17.1 20.5876 17.685 20.5876ZM16.065 10.2601C16.155 9.27008 16.695 8.73008 17.685 8.64008C18.675 8.73008 19.215 9.27008 19.305 10.2601V16.7401C19.215 17.7301 18.675 18.2701 17.685 18.3601C16.695 18.2701 16.155 17.7301 16.065 16.7401V10.2601Z" fill="#E02424"/>
</svg>
