<svg width="44" height="35" viewBox="0 0 44 35" fill="none" xmlns="http://www.w3.org/2000/svg">
<path d="M43.2 28.3502C43.155 30.1502 42.5025 31.6352 41.2425 32.8052C39.9375 33.9302 38.385 34.5152 36.585 34.5602C36.135 34.5602 35.6625 34.5152 35.1675 34.4252C34.6725 34.3352 33.8625 34.1327 32.7375 33.8177C32.1975 33.6377 31.5225 33.4577 30.7125 33.2777C29.2725 32.8277 28.125 32.0627 27.27 30.9827C26.37 29.9027 25.92 28.6652 25.92 27.2702V21.8027L29.16 24.0977V27.2702C29.25 28.6652 30.06 29.6102 31.59 30.1052C32.445 30.3302 33.1425 30.5327 33.6825 30.7127C34.7625 30.9827 35.46 31.1627 35.775 31.2527C36.09 31.2977 36.36 31.3202 36.585 31.3202C37.665 31.3202 38.5425 30.9377 39.2175 30.1727C39.8925 29.4527 40.095 28.4627 39.825 27.2027C38.43 21.9827 36.27 17.0777 33.345 12.4877C33.255 12.3977 33.1875 12.2852 33.1425 12.1502C32.4675 11.1152 31.995 10.4402 31.725 10.1252C31.41 9.81024 31.0275 9.67524 30.5775 9.72024C29.7225 9.81024 29.25 10.2152 29.16 10.9352V17.4827L33.885 20.7902C34.65 21.4652 34.785 22.2302 34.29 23.0852C33.93 23.5352 33.4575 23.7602 32.8725 23.7602C32.5575 23.7602 32.2425 23.6702 31.9275 23.4902L21.6 16.0652L11.205 23.4902C10.89 23.6702 10.575 23.7602 10.26 23.7602C9.72 23.7602 9.27 23.5352 8.91 23.0852C8.415 22.2302 8.55 21.4652 9.315 20.7902L14.04 17.4827V10.9352C13.95 10.2152 13.4325 9.81024 12.4875 9.72024C12.0825 9.67524 11.7225 9.81024 11.4075 10.1252C11.1375 10.4402 10.665 11.1152 9.99 12.1502C9.945 12.2852 9.8775 12.3977 9.7875 12.4877C6.9075 17.0777 4.77 21.9827 3.375 27.2027C3.105 28.4627 3.3075 29.4527 3.9825 30.1727C4.6575 30.9377 5.535 31.3202 6.615 31.3202C6.84 31.3202 7.11 31.2977 7.425 31.2527C7.74 31.1627 8.4375 30.9827 9.5175 30.7127C10.0575 30.5327 10.755 30.3302 11.61 30.1052C13.14 29.6102 13.95 28.6652 14.04 27.2702V24.0977L17.28 21.8027V27.2702C17.28 28.6652 16.83 29.9027 15.93 30.9827C15.075 32.0627 13.9275 32.8052 12.4875 33.2102C11.6775 33.4352 10.98 33.6377 10.395 33.8177C9.27 34.1327 8.4825 34.3352 8.0325 34.4252C7.5375 34.5152 7.065 34.5602 6.615 34.5602C4.815 34.5152 3.2625 33.9302 1.9575 32.8052C0.6975 31.6352 0.045 30.1502 0 28.3502C0 27.6752 0.09 27.0002 0.27 26.3252C1.755 20.8352 4.05 15.6377 7.155 10.7327C7.29 10.5527 7.4025 10.3727 7.4925 10.1927C8.1225 9.11274 8.7975 8.23524 9.5175 7.56024C10.2375 6.88524 11.25 6.52524 12.555 6.48024C13.905 6.52524 15.03 6.95274 15.93 7.76274C16.785 8.61774 17.235 9.67524 17.28 10.9352V15.1202L19.7775 13.3652C19.9125 13.2752 19.98 13.1402 19.98 12.9602V1.62024C20.07 0.630236 20.61 0.0902365 21.6 0.000236511C22.545 0.0902365 23.0625 0.630236 23.1525 1.62024V12.9602C23.1525 13.1402 23.22 13.2752 23.355 13.3652L25.92 15.1202V10.9352C25.965 9.67524 26.415 8.61774 27.27 7.76274C28.17 6.95274 29.295 6.52524 30.645 6.48024C31.95 6.52524 32.9625 6.88524 33.6825 7.56024C34.4475 8.28024 35.145 9.18024 35.775 10.2602C35.865 10.4402 35.955 10.5977 36.045 10.7327C39.15 15.6377 41.445 20.8352 42.93 26.3252C43.11 27.0002 43.2 27.6752 43.2 28.3502Z" fill="#E02424"/>
</svg>
