<svg width="33" height="35" viewBox="0 0 33 35" fill="none" xmlns="http://www.w3.org/2000/svg">
<path d="M20.52 23.76C21.195 23.805 21.555 24.165 21.6 24.84C21.555 25.515 21.195 25.875 20.52 25.92C19.845 25.875 19.485 25.515 19.44 24.84C19.485 24.165 19.845 23.805 20.52 23.76ZM17.28 27C17.955 27.045 18.315 27.405 18.36 28.08C18.315 28.755 17.955 29.115 17.28 29.16C16.605 29.115 16.245 28.755 16.2 28.08C16.245 27.405 16.605 27.045 17.28 27ZM12.96 23.76C13.635 23.805 13.995 24.165 14.04 24.84C13.995 25.515 13.635 25.875 12.96 25.92C12.285 25.875 11.925 25.515 11.88 24.84C11.925 24.165 12.285 23.805 12.96 23.76ZM17.28 20.52C17.955 20.565 18.315 20.925 18.36 21.6C18.315 22.275 17.955 22.635 17.28 22.68C16.605 22.635 16.245 22.275 16.2 21.6C16.245 20.925 16.605 20.565 17.28 20.52ZM24.84 20.52C25.515 20.565 25.875 20.925 25.92 21.6C25.875 22.275 25.515 22.635 24.84 22.68C24.165 22.635 23.805 22.275 23.76 21.6C23.805 20.925 24.165 20.565 24.84 20.52ZM22.68 27C23.355 27.045 23.715 27.405 23.76 28.08C23.715 28.755 23.355 29.115 22.68 29.16C22.005 29.115 21.645 28.755 21.6 28.08C21.645 27.405 22.005 27.045 22.68 27ZM27.54 5.39999C28.935 5.44499 30.0825 5.91749 30.9825 6.81749C31.8825 7.71749 32.355 8.86499 32.4 10.26V21.6C32.31 25.245 31.05 28.305 28.62 30.78C26.145 33.21 23.085 34.47 19.44 34.56H17.2125C15.2325 34.56 13.365 34.1775 11.61 33.4125C9.855 32.6475 8.3025 31.545 6.9525 30.105L1.4175 24.2325C0.4725 23.1525 0 21.915 0 20.52C0.045 18.99 0.585 17.7075 1.62 16.6725C2.61 15.6825 3.87 15.165 5.4 15.12C5.76 15.12 6.12 15.165 6.48 15.255V7.01999C6.525 5.62499 6.9975 4.47749 7.8975 3.57749C8.8425 2.67749 9.99 2.20499 11.34 2.15999C11.79 2.15999 12.2175 2.20499 12.6225 2.29499C13.5225 0.854992 14.895 0.0899924 16.74 -7.62939e-06C18.585 0.0899924 19.9575 0.854992 20.8575 2.29499C21.2625 2.20499 21.69 2.15999 22.14 2.15999C23.22 2.15999 24.165 2.47499 24.975 3.10499C25.83 3.68999 26.415 4.47749 26.73 5.46749C27 5.42249 27.27 5.39999 27.54 5.39999ZM29.16 21.6V10.26C29.07 9.26999 28.5075 8.72999 27.4725 8.63999C26.4825 8.72999 25.9425 9.26999 25.8525 10.26V17.28C25.8075 17.955 25.4475 18.315 24.7725 18.36C24.0975 18.315 23.7375 17.955 23.6925 17.28V7.01999C23.6025 6.02999 23.0625 5.48999 22.0725 5.39999C21.0825 5.48999 20.5425 6.02999 20.4525 7.01999V17.28C20.4075 17.955 20.0475 18.315 19.3725 18.36C18.7875 18.315 18.45 17.955 18.36 17.28V4.85999C18.27 3.86999 17.73 3.32999 16.74 3.23999C15.75 3.32999 15.21 3.86999 15.12 4.85999V17.28C15.03 17.955 14.6475 18.315 13.9725 18.36C13.2975 18.315 12.9375 17.955 12.8925 17.28V7.01999C12.8925 6.56999 12.735 6.18749 12.42 5.87249C12.105 5.55749 11.7225 5.39999 11.2725 5.39999C10.3275 5.48999 9.81 6.02999 9.72 7.01999V20.5875C9.675 20.9475 9.495 21.1275 9.18 21.1275C9.045 21.1275 8.91 21.0825 8.775 20.9925L6.9525 19.035C6.5025 18.585 5.985 18.36 5.4 18.36C4.95 18.36 4.5 18.5175 4.05 18.8325C3.555 19.1925 3.3075 19.7325 3.3075 20.4525C3.3075 21.0825 3.51 21.6225 3.915 22.0725L9.315 27.8775C11.475 30.1275 14.1075 31.275 17.2125 31.32H19.5075C22.2075 31.23 24.48 30.285 26.325 28.485C28.125 26.64 29.07 24.345 29.16 21.6Z" fill="#133AD8"/>
</svg>
