<svg width="83" height="74" viewBox="0 0 83 74" fill="none" xmlns="http://www.w3.org/2000/svg">
<path d="M32.1562 41.3438C31.1992 41.3438 30.3857 40.9131 29.7158 40.0518C29.0459 39.1904 28.7109 38.0898 28.7109 36.75C28.7109 35.4102 29.0459 34.3096 29.7158 33.4482C30.3857 32.5869 31.1992 32.1562 32.1562 32.1562C33.1133 32.1562 33.9268 32.6348 34.5967 33.5918C35.2666 34.5488 35.6016 35.6494 35.6016 36.8936C35.6016 38.1377 35.2666 39.1904 34.5967 40.0518C33.9268 40.9131 33.1133 41.3438 32.1562 41.3438ZM41.3438 0C42.5879 0 43.6406 0.478516 44.502 1.43555C45.459 2.29688 45.9375 3.39746 45.9375 4.7373V68.9062C45.9375 70.2461 45.5068 71.3467 44.6455 72.208C43.7842 73.0693 42.6836 73.5 41.3438 73.5H3.44531C1.33984 73.3086 0.191406 72.1602 0 70.0547C0.191406 67.9492 1.33984 66.8008 3.44531 66.6094H9.1875V11.915C9.2832 9.52246 10.4316 7.99121 12.6328 7.32129L40.1953 0.143555C40.5781 0.0478516 40.9609 0 41.3438 0ZM39.0469 66.6094V7.6084L16.0781 13.4941V66.6094H39.0469ZM79.2422 66.6094C81.3477 66.8008 82.4961 67.9492 82.6875 70.0547C82.4961 72.1602 81.3477 73.3086 79.2422 73.5H71.2031C69.8633 73.5 68.7627 73.0693 67.9014 72.208C67.04 71.3467 66.6094 70.2461 66.6094 68.9062V18.375C66.5137 16.9395 65.748 16.1738 64.3125 16.0781H50.5312V9.1875H64.3125C66.8965 9.2832 69.0498 10.1924 70.7725 11.915C72.4951 13.6377 73.4043 15.791 73.5 18.375V66.6094H79.2422Z" fill="#133AD8"/>
</svg>
