<svg width="43" height="48" viewBox="0 0 43 48" fill="none" xmlns="http://www.w3.org/2000/svg">
<path d="M24.375 3V4.6875C27.875 5.3125 30.7188 6.90625 32.9062 9.46875C35.1562 12.0312 36.3125 15.125 36.375 18.75V21.8438C36.4375 26.2188 37.8125 30.125 40.5 33.5625L41.9062 35.3438C42.4688 36.0938 42.5625 36.875 42.1875 37.6875C41.75 38.5 41.0625 38.9375 40.125 39H2.625C1.6875 38.9375 1 38.5 0.5625 37.6875C0.1875 36.875 0.28125 36.0938 0.84375 35.3438L2.25 33.5625C4.9375 30.125 6.3125 26.2188 6.375 21.8438V18.75C6.4375 15.125 7.59375 12.0312 9.84375 9.46875C12.0312 6.90625 14.875 5.3125 18.375 4.6875V3C18.375 2.125 18.6562 1.40625 19.2188 0.84375C19.7812 0.28125 20.5 0 21.375 0C22.25 0 22.9688 0.28125 23.5312 0.84375C24.0938 1.40625 24.375 2.125 24.375 3ZM20.625 9C17.875 9.0625 15.5625 10 13.6875 11.8125C11.875 13.6875 10.9375 16 10.875 18.75V21.8438C10.875 26.4688 9.625 30.6875 7.125 34.5H35.625C33.125 30.6875 31.875 26.4688 31.875 21.8438V18.75C31.8125 16 30.875 13.6875 29.0625 11.8125C27.1875 10 24.875 9.0625 22.125 9H20.625ZM27.375 42C27.375 43.625 26.7812 45.0312 25.5938 46.2188C24.4062 47.4062 23 48 21.375 48C19.75 48 18.3438 47.4062 17.1562 46.2188C15.9688 45.0312 15.375 43.625 15.375 42H27.375Z" fill="#133AD8"/>
</svg>
