<svg width="38" height="31" viewBox="0 0 38 31" fill="none" xmlns="http://www.w3.org/2000/svg">
<path d="M17.3921 5.64079C17.4313 5.05322 17.7446 4.73985 18.3322 4.70068H19.2723C19.8599 4.73985 20.1732 5.05322 20.2124 5.64079V7.05095H21.6226C22.2102 7.09013 22.5235 7.4035 22.5627 7.99107V8.93118C22.5235 9.51875 22.2102 9.83212 21.6226 9.87129H20.2124V11.2815C20.1732 11.869 19.8599 12.1824 19.2723 12.2216H18.3322C17.7446 12.1824 17.4313 11.869 17.3921 11.2815V9.87129H15.9819C15.3943 9.83212 15.081 9.51875 15.0418 8.93118V7.99107C15.081 7.4035 15.3943 7.09013 15.9819 7.05095H17.3921V5.64079ZM23.9729 0.000118017C25.1872 0.0392893 26.186 0.450588 26.9695 1.23401C27.7529 2.01744 28.1642 3.01631 28.2034 4.23062V4.70068H33.374C34.5883 4.73985 35.5872 5.15115 36.3706 5.93457C37.154 6.718 37.5653 7.71687 37.6045 8.93118V25.8532C37.5653 27.0675 37.154 28.0664 36.3706 28.8498C35.5872 29.6332 34.5883 30.0445 33.374 30.0837H4.23052C3.01621 30.0445 2.01734 29.6332 1.23391 28.8498C0.450485 28.0664 0.0391866 27.0675 1.52588e-05 25.8532V8.93118C0.0391866 7.71687 0.450485 6.718 1.23391 5.93457C2.01734 5.15115 3.01621 4.73985 4.23052 4.70068H9.40113V4.23062C9.4403 3.01631 9.8516 2.01744 10.635 1.23401C11.4185 0.450588 12.4173 0.0392893 13.6316 0.000118017H23.9729ZM28.2034 7.52101V27.2634H33.374C34.2357 27.185 34.7058 26.715 34.7841 25.8532V19.7425H31.4938C30.632 19.6641 30.1619 19.1941 30.0836 18.3323C30.1619 17.4705 30.632 17.0005 31.4938 16.9221H34.7841V14.1018H31.4938C30.632 14.0234 30.1619 13.5534 30.0836 12.6916C30.1619 11.8299 30.632 11.3598 31.4938 11.2815H34.7841V8.93118C34.7058 8.06941 34.2357 7.59935 33.374 7.52101H28.2034ZM2.82035 8.93118V11.2815H6.11074C6.97251 11.3598 7.44257 11.8299 7.52091 12.6916C7.44257 13.5534 6.97251 14.0234 6.11074 14.1018H2.82035V16.9221H6.11074C6.97251 17.0005 7.44257 17.4705 7.52091 18.3323C7.44257 19.1941 6.97251 19.6641 6.11074 19.7425H2.82035V25.8532C2.89869 26.715 3.36875 27.185 4.23052 27.2634H9.40113V7.52101H4.23052C3.36875 7.59935 2.89869 8.06941 2.82035 8.93118ZM12.2215 27.2634H15.9819V23.5029C16.0211 22.7195 16.2953 22.0536 16.8045 21.5052C17.3529 20.9959 18.0188 20.7217 18.8022 20.6826C19.5857 20.7217 20.2516 20.9959 20.8 21.5052C21.3092 22.0536 21.5834 22.7195 21.6226 23.5029V27.2634H25.383V4.23062C25.3047 3.36885 24.8346 2.8988 23.9729 2.82045H13.6316C12.7699 2.8988 12.2998 3.36885 12.2215 4.23062V27.2634Z" fill="white"/>
</svg>
