<svg width="30" height="27" viewBox="0 0 30 27" fill="none" xmlns="http://www.w3.org/2000/svg">
<path d="M0 3.7282C0.0388351 2.67965 0.407769 1.80586 1.1068 1.10683C1.80583 0.407794 2.67962 0.0388602 3.72817 2.5034e-05H26.0972C27.1458 0.0388602 28.0196 0.407794 28.7186 1.10683C29.4176 1.80586 29.7866 2.67965 29.8254 3.7282V7.45637C29.7866 8.50492 29.4176 9.37871 28.7186 10.0777C28.0196 10.7768 27.1458 11.1457 26.0972 11.1845H8.85441V16.7768C8.85441 17.437 9.08742 17.9807 9.55345 18.4079C9.98063 18.8739 10.5243 19.1069 11.1845 19.1069H13.0486V18.6409C13.0874 17.5923 13.4564 16.7186 14.1554 16.0195C14.8544 15.3205 15.7282 14.9516 16.7768 14.9127H26.0972C27.1458 14.9516 28.0196 15.3205 28.7186 16.0195C29.4176 16.7186 29.7866 17.5923 29.8254 18.6409V22.3691C29.7866 23.4176 29.4176 24.2914 28.7186 24.9904C28.0196 25.6895 27.1458 26.0584 26.0972 26.0972H16.7768C15.7282 26.0584 14.8544 25.6895 14.1554 24.9904C13.4564 24.2914 13.0874 23.4176 13.0486 22.3691V21.903H11.1845C9.74762 21.8642 8.54373 21.3594 7.57285 20.3885C6.60197 19.4176 6.09712 18.2137 6.05828 16.7768V11.1845H3.72817C2.67962 11.1457 1.80583 10.7768 1.1068 10.0777C0.407769 9.37871 0.0388351 8.50492 0 7.45637V3.7282ZM26.0972 17.7089H16.7768C16.1943 17.7477 15.8836 18.0584 15.8447 18.6409V22.3691C15.8836 22.9516 16.1943 23.2623 16.7768 23.3011H26.0972C26.6797 23.2623 26.9904 22.9516 27.0293 22.3691V18.6409C26.9904 18.0584 26.6797 17.7477 26.0972 17.7089Z" fill="#1F2A37"/>
</svg>
