<svg width="24" height="27" viewBox="0 0 24 27" fill="none" xmlns="http://www.w3.org/2000/svg">
<path d="M22.7186 20.272C22.9516 20.272 23.1264 20.3691 23.2429 20.5632C23.3594 20.7962 23.34 21.0293 23.1847 21.2623C21.9419 22.7768 20.4468 23.9613 18.6992 24.8157C16.9516 25.6701 15.0681 26.0972 13.0487 26.0972C10.6021 26.0584 8.40788 25.4565 6.46612 24.2914C4.48553 23.1652 2.93213 21.6118 1.80591 19.6312C0.640853 17.6894 0.0389083 15.4952 7.31945e-05 13.0486C0.0389083 10.602 0.640853 8.40783 1.80591 6.46608C2.97096 4.48548 4.52437 2.91266 6.46612 1.74761C8.44672 0.582552 10.6603 2.5034e-05 13.1069 2.5034e-05C13.4565 2.5034e-05 13.8448 0.0194426 14.272 0.0582777C14.738 0.0971129 15.1458 0.155366 15.4953 0.233036C15.7671 0.310706 15.9225 0.466047 15.9613 0.699058C16.0002 0.970904 15.9031 1.1845 15.6701 1.33984C14.039 2.27188 12.7768 3.53402 11.8836 5.12626C10.9904 6.67967 10.5244 8.38842 10.4856 10.2525C10.5632 13.1651 11.5729 15.5729 13.5147 17.4758C15.4176 19.4176 17.7866 20.4079 20.6215 20.4467C21.2817 20.4467 21.9419 20.3885 22.6021 20.272C22.641 20.272 22.6798 20.272 22.7186 20.272ZM13.0487 23.3011C14.2914 23.3011 15.4953 23.0875 16.6603 22.6603C14.0196 21.7671 11.8642 20.2137 10.1943 18.0001C8.52439 15.7865 7.67001 13.204 7.63118 10.2525C7.67001 7.72822 8.33021 5.43695 9.61177 3.37868C7.59234 4.11655 5.96127 5.35927 4.71854 7.10686C3.47582 8.8156 2.83504 10.7962 2.7962 13.0486C2.87387 15.9613 3.88359 18.369 5.82534 20.272C7.72827 22.2137 10.136 23.2234 13.0487 23.3011Z" fill="#1F2A37"/>
</svg>
