<svg width="44" height="35" viewBox="0 0 44 35" fill="none" xmlns="http://www.w3.org/2000/svg">
<path d="M14.58 6.5475C13.59 6.4575 13.05 5.9175 12.96 4.9275C13.05 3.9375 13.59 3.3975 14.58 3.3075H23.76C24.39 3.3075 24.8625 3.5775 25.1775 4.1175L26.865 7.29L29.835 1.0125C30.105 0.517497 30.51 0.202497 31.05 0.0674973C31.59 0.0224973 32.0625 0.179997 32.4675 0.539997L35.235 3.3075H41.58C42.57 3.3975 43.11 3.9375 43.2 4.9275C43.11 5.9175 42.57 6.4575 41.58 6.5475H34.56C34.11 6.5475 33.7275 6.39 33.4125 6.075L31.7925 4.455L28.485 11.5425C28.17 12.1275 27.6975 12.4425 27.0675 12.4875H27C26.37 12.4875 25.8975 12.195 25.5825 11.61L22.815 6.5475H14.58ZM11.34 22.7475C9.675 22.7025 8.28 22.1175 7.155 20.9925C6.03 19.8675 5.445 18.4725 5.4 16.8075C5.445 15.1425 6.03 13.7475 7.155 12.6225C8.28 11.4975 9.675 10.9125 11.34 10.8675C13.005 10.9125 14.4 11.4975 15.525 12.6225C16.65 13.7475 17.235 15.1425 17.28 16.8075C17.235 18.4725 16.65 19.8675 15.525 20.9925C14.4 22.1175 13.005 22.7025 11.34 22.7475ZM11.34 14.1075C10.53 14.1075 9.8775 14.3775 9.3825 14.9175C8.8875 15.4125 8.64 16.0425 8.64 16.8075C8.64 17.5725 8.8875 18.2025 9.3825 18.6975C9.8775 19.2375 10.53 19.5075 11.34 19.5075C12.06 19.5075 12.69 19.2375 13.23 18.6975C13.725 18.2025 13.995 17.5725 14.04 16.8075C13.995 16.0425 13.725 15.4125 13.23 14.9175C12.69 14.3775 12.06 14.1075 11.34 14.1075ZM35.64 10.8675C37.8 10.9125 39.5775 11.655 40.9725 13.095C42.4125 14.49 43.155 16.2675 43.2 18.4275V33.0075C43.11 33.9975 42.57 34.5375 41.58 34.6275C40.59 34.5375 40.05 33.9975 39.96 33.0075V28.1475H3.24V33.0075C3.15 33.9975 2.61 34.5375 1.62 34.6275C0.63 34.5375 0.09 33.9975 0 33.0075V6.0075C0.09 5.0175 0.63 4.4775 1.62 4.3875C2.61 4.4775 3.15 5.0175 3.24 6.0075V24.9075H19.44V12.4875C19.53 11.4975 20.07 10.9575 21.06 10.8675C22.05 10.9575 22.59 11.4975 22.68 12.4875V24.9075H39.96V18.4275C39.915 17.2125 39.4875 16.2 38.6775 15.39C37.8675 14.58 36.855 14.1525 35.64 14.1075H32.94C31.95 14.0175 31.41 13.4775 31.32 12.4875C31.41 11.4975 31.95 10.9575 32.94 10.8675H35.64Z" fill="#133AD8"/>
</svg>
