<svg width="29" height="29" viewBox="0 0 29 29" fill="none" xmlns="http://www.w3.org/2000/svg">
<path d="M15.43 3.65601C14.7863 2.86372 14.811 2.04668 15.5043 1.20488C16.4451 0.561147 17.2869 0.610665 18.0297 1.35343L28.057 12.6435C28.6513 13.4358 28.6513 14.2281 28.057 15.0203L18.0297 26.3104C17.2374 27.0532 16.3956 27.1027 15.5043 26.4589C15.1577 26.0628 14.9844 25.6171 14.9844 25.122C14.9844 24.6763 15.1329 24.2802 15.43 23.9335L24.4918 13.8319L15.43 3.65601ZM13.9445 15.0203L3.76857 26.3104C2.97629 27.0532 2.13449 27.1027 1.24317 26.4589C0.896544 26.0628 0.723231 25.6171 0.723231 25.122C0.723231 24.6763 0.871785 24.2802 1.16889 23.9335L10.2306 13.8319L1.16889 3.65601C0.52516 2.86372 0.574678 2.04668 1.31744 1.20488C2.20876 0.561147 3.05057 0.610665 3.84285 1.35343L13.9445 12.6435C14.5387 13.4358 14.5387 14.2281 13.9445 15.0203Z" fill="white"/>
</svg>
