<svg width="29" height="29" viewBox="0 0 29 29" fill="none" xmlns="http://www.w3.org/2000/svg">
<path d="M25.7957 16.7199C26.5599 17.0638 26.8464 17.656 26.6554 18.4966C25.8148 21.2477 24.2673 23.4638 22.0129 25.1451C19.7968 26.8263 17.2367 27.686 14.3328 27.7242C12.0403 27.686 9.93873 27.1128 8.02826 26.0048C6.11779 24.8585 4.5703 23.3301 3.38581 21.4196V27.2657C3.30939 28.1063 2.85088 28.5648 2.01027 28.6412C1.16966 28.5648 0.711148 28.1063 0.634729 27.2657V18.0954C0.711148 17.2548 1.16966 16.7963 2.01027 16.7199H11.1805C11.9829 16.7963 12.4223 17.2548 12.4988 18.0954C12.4223 18.936 11.9638 19.3945 11.1232 19.4709H5.39181C6.27063 21.1522 7.49333 22.4895 9.05992 23.4829C10.6265 24.4382 12.3841 24.9349 14.3328 24.9731C16.6254 24.9349 18.6505 24.2662 20.4081 22.9671C22.204 21.6298 23.4267 19.853 24.0762 17.6369C24.3819 16.8727 24.9551 16.567 25.7957 16.7199ZM26.77 1.1304C27.6106 1.20682 28.0691 1.66534 28.1455 2.50594V11.6762C28.0691 12.5168 27.6106 12.9753 26.77 13.0518H17.5997C16.7591 12.9753 16.3006 12.5168 16.2242 11.6762C16.3006 10.8356 16.7591 10.3771 17.5997 10.3007H23.3885C22.4714 8.61946 21.2296 7.28213 19.663 6.28868C18.0965 5.33344 16.3388 4.83672 14.3901 4.79851C12.0976 4.83672 10.0725 5.50539 8.31483 6.80451C6.59541 8.14184 5.39181 9.89948 4.70404 12.0774C4.39836 12.8416 3.82522 13.1473 2.98461 12.9944C2.22042 12.6888 1.91475 12.1156 2.06758 11.275C2.90819 8.52393 4.45568 6.30779 6.71003 4.62657C8.92618 2.94535 11.4862 2.08564 14.3901 2.04743C16.7209 2.08564 18.8415 2.65878 20.752 3.76686C22.6625 4.91314 24.21 6.44152 25.3945 8.35199V2.50594C25.4709 1.66534 25.9294 1.20682 26.77 1.1304Z" fill="white"/>
</svg>
