<svg width="27" height="36" viewBox="0 0 27 36" fill="none" xmlns="http://www.w3.org/2000/svg">
<path d="M12.7266 22.8516L7.875 18.2109C7.26562 17.6016 6.96094 16.875 6.96094 16.0312C6.96094 15.1875 7.26562 14.4609 7.875 13.8516C8.48438 13.2891 9.1875 13.0078 9.98438 13.0078C10.7812 13.0078 11.4844 13.2891 12.0938 13.8516L13.5 15.1875L14.9062 13.8516C15.5156 13.2891 16.2188 13.0078 17.0156 13.0078C17.8125 13.0078 18.5156 13.2891 19.125 13.8516C19.7344 14.4609 20.0391 15.1875 20.0391 16.0312C20.0391 16.875 19.7344 17.6016 19.125 18.2109L14.2734 22.8516C13.7578 23.2734 13.2422 23.2734 12.7266 22.8516ZM19.125 0C20.0625 0.046875 20.8594 0.375 21.5156 0.984375C22.125 1.64062 22.4531 2.4375 22.5 3.375V4.64062C23.8125 4.92188 24.8906 5.55469 25.7344 6.53906C26.5312 7.52344 26.9531 8.71875 27 10.125V25.875C26.9531 27.2812 26.5312 28.4766 25.7344 29.4609C24.8906 30.4453 23.8125 31.0781 22.5 31.3594V32.625C22.4531 33.5625 22.125 34.3594 21.5156 35.0156C20.8594 35.625 20.0625 35.9531 19.125 36H7.875C6.9375 35.9531 6.14062 35.625 5.48438 35.0156C4.875 34.3594 4.54688 33.5625 4.5 32.625V31.3594C3.1875 31.0781 2.10938 30.4453 1.26562 29.4609C0.46875 28.4766 0.046875 27.2812 0 25.875V10.125C0.046875 8.71875 0.46875 7.52344 1.26562 6.53906C2.10938 5.55469 3.1875 4.92188 4.5 4.64062V3.375C4.54688 2.4375 4.875 1.64062 5.48438 0.984375C6.14062 0.375 6.9375 0.046875 7.875 0H19.125ZM21.375 7.875H5.625C4.96875 7.875 4.42969 8.08594 4.00781 8.50781C3.58594 8.92969 3.375 9.46875 3.375 10.125V25.875C3.375 26.5312 3.58594 27.0703 4.00781 27.4922C4.42969 27.9141 4.96875 28.125 5.625 28.125H21.375C22.0312 28.125 22.5703 27.9141 22.9922 27.4922C23.4141 27.0703 23.625 26.5312 23.625 25.875V10.125C23.625 9.46875 23.4141 8.92969 22.9922 8.50781C22.5703 8.08594 22.0312 7.875 21.375 7.875Z" fill="#133AD8"/>
</svg>
