<svg width="30" height="30" viewBox="0 0 30 30" fill="none" xmlns="http://www.w3.org/2000/svg">
<path d="M9.32043 14.8544C9.32043 15.3981 9.14568 15.8447 8.79616 16.1942C8.44664 16.5437 8.00004 16.7185 7.45635 16.7185C6.91266 16.7185 6.46605 16.5437 6.11654 16.1942C5.76702 15.8447 5.59226 15.3981 5.59226 14.8544C5.59226 14.3495 5.76702 13.9224 6.11654 13.5728C6.46605 13.2233 6.91266 13.0291 7.45635 12.9903C8.00004 13.0291 8.44664 13.2233 8.79616 13.5728C9.14568 13.9224 9.32043 14.3495 9.32043 14.8544ZM7.45635 9.26213C7.45635 8.75728 7.63111 8.33009 7.98062 7.98057C8.33014 7.63106 8.77674 7.43688 9.32043 7.39805C9.86413 7.43688 10.3107 7.63106 10.6602 7.98057C11.0098 8.33009 11.1845 8.75728 11.1845 9.26213C11.1845 9.80583 11.0098 10.2524 10.6602 10.6019C10.3107 10.9515 9.86413 11.1262 9.32043 11.1262C8.77674 11.1262 8.33014 10.9515 7.98062 10.6019C7.63111 10.2524 7.45635 9.80583 7.45635 9.26213ZM16.7768 7.39805C16.7768 7.94174 16.602 8.38834 16.2525 8.73786C15.903 9.08738 15.4564 9.26213 14.9127 9.26213C14.369 9.26213 13.9224 9.08738 13.5729 8.73786C13.2234 8.38834 13.0486 7.94174 13.0486 7.39805C13.0486 6.89319 13.2234 6.466 13.5729 6.11649C13.9224 5.76697 14.369 5.57279 14.9127 5.53396C15.4564 5.57279 15.903 5.76697 16.2525 6.11649C16.602 6.466 16.7768 6.89319 16.7768 7.39805ZM18.6409 9.26213C18.6409 8.75728 18.8156 8.33009 19.1651 7.98057C19.5147 7.63106 19.9613 7.43688 20.505 7.39805C21.0486 7.43688 21.4953 7.63106 21.8448 7.98057C22.1943 8.33009 22.369 8.75728 22.369 9.26213C22.369 9.80583 22.1943 10.2524 21.8448 10.6019C21.4953 10.9515 21.0486 11.1262 20.505 11.1262C19.9613 11.1262 19.5147 10.9515 19.1651 10.6019C18.8156 10.2524 18.6409 9.80583 18.6409 9.26213ZM25.7477 18.5826H20.0389C19.2622 18.6214 18.602 18.9127 18.0583 19.4564C17.5535 20.0001 17.2816 20.6602 17.2428 21.437C17.2428 21.6311 17.2622 21.8253 17.3011 22.0195C17.4176 22.4855 17.5729 22.9515 17.7671 23.4175C17.8447 23.534 17.903 23.6506 17.9418 23.7671C17.9418 23.7671 17.9418 23.7865 17.9418 23.8253C18.369 24.602 18.602 25.3981 18.6409 26.2137C18.6409 27.1457 18.3496 27.9613 17.7671 28.6603C17.2234 29.3593 16.4855 29.7477 15.5535 29.8253C15.3205 29.8253 15.1069 29.8253 14.9127 29.8253C12.1166 29.7865 9.6117 29.1069 7.39809 27.7865C5.14566 26.4661 3.35924 24.6797 2.03885 22.4272C0.71845 20.2136 0.0388351 17.7088 0 14.9126C0.0388351 12.1165 0.71845 9.61165 2.03885 7.39805C3.35924 5.14561 5.14566 3.35919 7.39809 2.0388C9.6117 0.718402 12.1166 0.038787 14.9127 -4.81606e-05C17.7088 0.038787 20.2137 0.718402 22.4273 2.0388C24.6797 3.35919 26.4661 5.14561 27.7865 7.39805C29.1069 9.61165 29.7866 12.1165 29.8254 14.9126C29.8254 14.9515 29.8254 14.9709 29.8254 14.9709C29.7866 15.0097 29.7671 15.0486 29.7671 15.0874C29.7671 16.136 29.3594 16.9903 28.5438 17.6505C27.7671 18.3107 26.8351 18.6408 25.7477 18.6408V18.5826ZM26.971 15.0292C26.971 15.0292 26.971 15.0097 26.971 14.9709C27.0098 14.9321 27.0293 14.8932 27.0293 14.8544C26.9516 11.4369 25.7671 8.58252 23.4758 6.29125C21.1846 3.99997 18.3302 2.8155 14.9127 2.73783C11.4952 2.8155 8.64082 3.99997 6.34955 6.29125C4.05827 8.58252 2.8738 11.4369 2.79613 14.8544C2.8738 18.3107 4.05827 21.1845 6.34955 23.4758C8.64082 25.7671 11.4952 26.9515 14.9127 27.0292C15.068 27.0292 15.2428 27.0292 15.437 27.0292C15.4758 27.0292 15.4952 27.0292 15.4952 27.0292C15.4952 26.9904 15.4952 26.971 15.4952 26.971C15.5341 26.971 15.5729 26.9515 15.6117 26.9127C15.7671 26.7574 15.8447 26.5244 15.8447 26.2137C15.8836 26.1748 15.7671 25.8447 15.4952 25.2234C15.4952 25.1457 15.4758 25.068 15.437 24.9904C15.1263 24.369 14.835 23.5729 14.5632 22.602C14.4855 22.2137 14.4467 21.8253 14.4467 21.437C14.4855 19.8447 15.0292 18.5049 16.0777 17.4175C17.1263 16.369 18.4467 15.8253 20.0389 15.7864H25.7477C26.1749 15.7864 26.5244 15.6893 26.7962 15.4952C26.9516 15.3398 27.0098 15.1845 26.971 15.0292Z" fill="#1F2A37"/>
</svg>
