<svg width="27" height="30" viewBox="0 0 27 30" fill="none" xmlns="http://www.w3.org/2000/svg">
<path d="M15.8447 17.7088C18.7574 17.7864 21.1652 18.7962 23.0681 20.7379C25.0098 22.6408 26.0195 25.0486 26.0972 27.9613C26.0972 28.5049 25.9225 28.9516 25.5729 29.3011C25.2234 29.6506 24.7768 29.8253 24.2331 29.8253H1.86409C1.32039 29.8253 0.873791 29.6506 0.524274 29.3011C0.174758 28.9516 0 28.5049 0 27.9613C0.0776703 25.0486 1.08738 22.6408 3.02914 20.7379C4.93206 18.7962 7.33984 17.7864 10.2525 17.7088H15.8447ZM2.85438 27.0292H23.2428C22.971 25.1651 22.1554 23.6117 20.7962 22.369C19.437 21.1651 17.7865 20.5437 15.8447 20.5049H10.2525C8.31072 20.5437 6.66023 21.1651 5.301 22.369C3.94177 23.6117 3.12623 25.1651 2.85438 27.0292ZM13.0486 14.9126C10.9515 14.8738 9.18451 14.1554 7.74761 12.7573C6.34955 11.3204 5.6311 9.5534 5.59226 7.4563C5.6311 5.3592 6.34955 3.5922 7.74761 2.1553C9.18451 0.757237 10.9515 0.038787 13.0486 -4.81606e-05C15.1457 0.038787 16.9127 0.757237 18.3496 2.1553C19.7477 3.5922 20.4661 5.3592 20.505 7.4563C20.4661 9.5534 19.7477 11.3204 18.3496 12.7573C16.9127 14.1554 15.1457 14.8738 13.0486 14.9126ZM13.0486 2.79608C11.7282 2.83492 10.6214 3.28152 9.7282 4.13589C8.87383 5.0291 8.42723 6.1359 8.38839 7.4563C8.42723 8.77669 8.87383 9.8835 9.7282 10.7767C10.6214 11.6311 11.7282 12.0777 13.0486 12.1165C14.369 12.0777 15.4758 11.6311 16.369 10.7767C17.2234 9.8835 17.67 8.77669 17.7088 7.4563C17.67 6.1359 17.2234 5.0291 16.369 4.13589C15.4758 3.28152 14.369 2.83492 13.0486 2.79608Z" fill="#1F2A37"/>
</svg>
