<svg width="29" height="29" viewBox="0 0 29 29" fill="none" xmlns="http://www.w3.org/2000/svg">
<path d="M28.0799 14.04C27.9899 15.03 27.4499 15.57 26.4599 15.66H15.6599V26.46C15.5699 27.45 15.0299 27.99 14.0399 28.08C13.0499 27.99 12.5099 27.45 12.4199 26.46V15.66H1.61992C0.629922 15.57 0.0899218 15.03 -7.82013e-05 14.04C0.0899218 13.05 0.629922 12.51 1.61992 12.42H12.4199V1.62C12.5099 0.630002 13.0499 0.0900019 14.0399 1.90735e-06C15.0299 0.0900019 15.5699 0.630002 15.6599 1.62V12.42H26.4599C27.4499 12.51 27.9899 13.05 28.0799 14.04Z" fill="#133AD8"/>
</svg>
