<svg width="35" height="31" viewBox="0 0 35 31" fill="none" xmlns="http://www.w3.org/2000/svg">
<path d="M17.3475 26.595L24.2325 19.5075H28.755L18.9 29.6325C18.45 30.0825 17.9325 30.3075 17.3475 30.3075C16.8075 30.3075 16.3125 30.0825 15.8625 29.6325L6.07498 19.5075H10.5975L17.3475 26.595ZM31.3875 2.15996C33.5025 4.09496 34.605 6.38996 34.695 9.04496C34.785 11.745 33.885 14.13 31.995 16.2L30.8475 17.3475H23.1525L21.6675 14.3775L18.2925 21.06C18.0675 21.465 17.7525 21.6675 17.3475 21.6675C16.8975 21.6675 16.56 21.465 16.335 21.06L12.555 12.4875L10.53 17.3475H3.98248L2.83498 16.2C0.944975 14.13 0.0449754 11.745 0.134975 9.04496C0.224975 6.38996 1.32748 4.09496 3.44248 2.15996C5.10748 0.764963 6.99747 0.0674629 9.11247 0.0674629C11.7675 0.112463 14.085 1.10246 16.065 3.03746L17.415 4.38746L18.765 3.03746C20.745 1.10246 23.0625 0.112463 25.7175 0.0674629C27.7875 0.0224629 29.6775 0.719963 31.3875 2.15996ZM29.7 13.905C30.825 12.69 31.41 11.1825 31.455 9.38246C31.5 7.58246 30.78 5.98496 29.295 4.58996C27.855 3.46496 26.37 3.05996 24.84 3.37496C23.265 3.68996 22.005 4.31996 21.06 5.26496L17.415 9.04496L13.77 5.26496C12.78 4.27496 11.52 3.64496 9.98997 3.37496C8.45997 3.10496 6.99747 3.50996 5.60248 4.58996C4.07248 5.98496 3.32998 7.58246 3.37498 9.38246C3.41998 11.1825 4.00498 12.69 5.12998 13.905L6.41247 15.1875H9.04497L11.475 9.38246C11.7 8.93246 12.0375 8.70746 12.4875 8.70746C12.9375 8.70746 13.275 8.90996 13.5 9.31496L17.415 18.09L20.7225 11.475C20.9475 11.07 21.2625 10.8675 21.6675 10.8675C22.0725 10.8675 22.3875 11.07 22.6125 11.475L24.5025 15.1875H28.4175L29.7 13.905Z" fill="#E02424"/>
</svg>
