<svg width="75" height="65" viewBox="0 0 75 65" fill="none" xmlns="http://www.w3.org/2000/svg">
<path d="M36.8936 56.5605L51.5361 41.4873H61.1543L40.1953 63.0205C39.2383 63.9775 38.1377 64.4561 36.8936 64.4561C35.7451 64.4561 34.6924 63.9775 33.7354 63.0205L12.9199 41.4873H22.5381L36.8936 56.5605ZM66.7529 4.59375C71.251 8.70898 73.5957 13.5898 73.7871 19.2363C73.9785 24.9785 72.0645 30.0508 68.0449 34.4531L65.6045 36.8936H49.2393L46.0811 30.5771L38.9033 44.7891C38.4248 45.6504 37.7549 46.0811 36.8936 46.0811C35.9365 46.0811 35.2188 45.6504 34.7402 44.7891L26.7012 26.5576L22.3945 36.8936H8.46973L6.0293 34.4531C2.00977 30.0508 0.0957031 24.9785 0.287109 19.2363C0.478516 13.5898 2.82324 8.70898 7.32129 4.59375C10.8623 1.62695 14.8818 0.143555 19.3799 0.143555C25.0264 0.239258 29.9551 2.34473 34.166 6.45996L37.0371 9.33105L39.9082 6.45996C44.1191 2.34473 49.0479 0.239258 54.6943 0.143555C59.0967 0.0478516 63.1162 1.53125 66.7529 4.59375ZM63.1641 29.5723C65.5566 26.9883 66.8008 23.7822 66.8965 19.9541C66.9922 16.126 65.4609 12.7285 62.3027 9.76172C59.2402 7.36914 56.082 6.50781 52.8281 7.17773C49.4785 7.84766 46.7988 9.1875 44.7891 11.1973L37.0371 19.2363L29.2852 11.1973C27.1797 9.0918 24.5 7.75195 21.2461 7.17773C17.9922 6.60352 14.8818 7.46484 11.915 9.76172C8.66113 12.7285 7.08203 16.126 7.17773 19.9541C7.27344 23.7822 8.51758 26.9883 10.9102 29.5723L13.6377 32.2998H19.2363L24.4043 19.9541C24.8828 18.9971 25.6006 18.5186 26.5576 18.5186C27.5146 18.5186 28.2324 18.9492 28.7109 19.8105L37.0371 38.4727L44.0713 24.4043C44.5498 23.543 45.2197 23.1123 46.0811 23.1123C46.9424 23.1123 47.6123 23.543 48.0908 24.4043L52.1104 32.2998H60.4365L63.1641 29.5723Z" fill="#133AD8"/>
</svg>
