<svg width="39" height="35" viewBox="0 0 39 35" fill="none" xmlns="http://www.w3.org/2000/svg">
<path d="M19.98 31.32C20.97 31.41 21.51 31.95 21.6 32.94C21.51 33.93 20.97 34.47 19.98 34.56H16.74C15.75 34.47 15.21 33.93 15.12 32.94C15.21 31.95 15.75 31.41 16.74 31.32H19.98ZM37.26 31.32C38.25 31.41 38.79 31.95 38.88 32.94C38.79 33.93 38.25 34.47 37.26 34.56H34.02C33.03 34.47 32.49 33.93 32.4 32.94C32.49 31.95 33.03 31.41 34.02 31.32H37.26ZM28.62 31.32C29.61 31.41 30.15 31.95 30.24 32.94C30.15 33.93 29.61 34.47 28.62 34.56H25.38C24.39 34.47 23.85 33.93 23.76 32.94C23.85 31.95 24.39 31.41 25.38 31.32H28.62ZM16.2 29.025C16.2 29.07 16.2 29.0925 16.2 29.0925C13.95 30.8475 11.4525 32.1975 8.7075 33.1425C5.9175 34.0875 3.015 34.56 0 34.56L12.0825 21.6H19.44V22.14C19.44 24.885 18.36 27.18 16.2 29.025ZM33.4125 7.69499L24.03 18.6975C23.625 19.1925 23.085 19.44 22.41 19.44H13.5C13.005 19.395 12.6675 19.1925 12.4875 18.8325C12.3075 18.4275 12.375 18.045 12.69 17.685L26.2575 1.75499C27.2925 0.629992 28.5525 0.0449924 30.0375 -7.62939e-06C30.9375 -7.62939e-06 31.7925 0.269992 32.6025 0.809992C33.7275 1.66499 34.3575 2.76749 34.4925 4.11749C34.6725 5.42249 34.3125 6.61499 33.4125 7.69499ZM21.9375 16.2L30.9825 5.60249C31.2975 5.15249 31.41 4.76999 31.32 4.45499C31.32 4.13999 31.1175 3.80249 30.7125 3.44249C30.5325 3.30749 30.3075 3.23999 30.0375 3.23999C29.5425 3.23999 29.115 3.44249 28.755 3.84749L18.225 16.2H21.9375Z" fill="#133AD8"/>
</svg>
