<svg width="40" height="31" viewBox="0 0 40 31" fill="none" xmlns="http://www.w3.org/2000/svg">
<path d="M37.395 18.1575C38.61 19.9125 39.0825 21.78 38.8125 23.76C38.4975 25.74 37.485 27.405 35.775 28.755C34.02 29.97 32.1525 30.4425 30.1725 30.1725C28.1925 29.8575 26.5275 28.8675 25.1775 27.2025L16.2 15.0525C15.705 14.3775 15.345 13.6575 15.12 12.8925V22.68C15.075 24.84 14.3325 26.6175 12.8925 28.0125C11.4975 29.4525 9.72 30.195 7.56 30.24C5.4 30.195 3.6225 29.4525 2.2275 28.0125C0.7875 26.6175 0.045 24.84 0 22.68V7.49252C0.045 5.37752 0.765 3.62252 2.16 2.22752C3.555 0.787519 5.3325 0.0450191 7.4925 1.90735e-05C9.6525 0.0450191 11.4525 0.787519 12.8925 2.22752C14.3325 3.62252 15.075 5.40002 15.12 7.56002V8.16752C15.57 6.72752 16.47 5.51252 17.82 4.52252C19.575 3.26252 21.4425 2.79002 23.4225 3.10502C25.4025 3.37502 27.0675 4.36502 28.4175 6.07502L37.395 18.1575ZM11.88 15.12V7.56002C11.79 5.67002 11.0475 4.41002 9.6525 3.78002C8.2575 3.10502 6.8625 3.08252 5.4675 3.71252C4.0725 4.38752 3.33 5.67002 3.24 7.56002V15.12H11.88ZM23.355 19.2375L30.24 14.04L25.7175 7.96502C24.5025 6.52502 23.1525 5.96252 21.6675 6.27752C20.1825 6.59252 19.08 7.42502 18.36 8.77502C17.595 10.08 17.7525 11.5425 18.8325 13.1625L23.355 19.2375Z" fill="#133AD8"/>
</svg>
